<?xml version="1.0" encoding="UTF-8" standalone="no"?>
<svg width="25px" height="29px" viewBox="0 0 25 29" version="1.1" xmlns="http://www.w3.org/2000/svg" xmlns:xlink="http://www.w3.org/1999/xlink">
    <!-- Generator: Sketch 42 (36781) - http://www.bohemiancoding.com/sketch -->
    <title>Group 3</title>
    <desc>Created with Sketch.</desc>
    <defs></defs>
    <g id="Page-1" stroke="none" stroke-width="1" fill="none" fill-rule="evenodd">
        <g id="Desktop" transform="translate(-633.000000, -836.000000)" fill-rule="nonzero" fill="#4A4A4A">
            <g id="Group-4" transform="translate(633.000000, 836.000000)">
                <g id="Group-3">
                    <path d="M0.887551987,28.9941696 C1.03510658,28.9763774 1.28596575,28.9303966 1.62861447,28.84372 C2.18122163,28.703932 2.80237577,28.4984483 3.48037192,28.2147964 C5.39467869,27.4139117 7.39578042,26.1513749 9.38828624,24.3299741 C11.0226038,22.8360021 12.5738709,21.2387558 14.160551,19.2225427 C16.5545353,16.1804788 18.258955,13.0670095 18.9797523,9.95919318 C19.0775893,9.53735543 18.8114188,9.11688295 18.3852437,9.02004164 C17.9590687,8.92320033 17.534273,9.186662 17.4364359,9.60849975 C16.7749788,12.4604627 15.1753823,15.3824511 12.9113523,18.2593807 C11.3864691,20.1970676 9.89033718,21.7375446 8.31397394,23.178539 C6.4580266,24.8751085 4.61221532,26.0396691 2.86389548,26.7711103 C2.25997233,27.0237724 1.71380864,27.2044483 1.23654272,27.3251779 C1.07364583,27.3663845 0.932179331,27.3971093 0.813554162,27.4188525 C0.748260896,27.4308203 0.708626216,27.4368104 0.696070932,27.4383242 C0.262018663,27.4906621 -0.0469857323,27.8813782 0.00589030084,28.3110132 C0.0587663337,28.7406479 0.453499715,29.0465075 0.887551987,28.9941696 Z" id="Path-2"></path>
                    <path d="M9.31596838,23.9889022 C8.92794458,24.0516513 8.54783955,23.8432051 8.41103964,23.4926473 C8.36362224,23.3711374 8.28465934,23.1516285 8.18476353,22.8449796 C8.02030689,22.3401493 7.85631187,21.7702028 7.70344533,21.1459047 C7.00468903,18.2922242 6.76584198,15.3457709 7.26556679,12.569263 C7.5571428,10.9492453 8.09574172,9.45363613 8.91097261,8.11243981 C10.2737644,5.87041079 12.3942572,4.06898735 15.057226,2.65280696 C16.7249373,1.7659096 18.5051679,1.08271249 20.284767,0.5753878 C20.9076612,0.397814301 21.4868602,0.254682588 22.0081679,0.142817952 C22.3249352,0.0748445629 22.5549731,0.0319684188 22.6840316,0.0110977691 C23.0720554,-0.05165134 23.4521605,0.156794915 23.5889604,0.507352728 C23.6363778,0.628862614 23.7153407,0.848371513 23.8152365,1.15502037 C23.9796931,1.65985072 24.1436881,2.2297972 24.2965547,2.85409531 C24.995311,5.70777578 25.234158,8.6542291 24.7344332,11.4307369 C24.4428572,13.0507547 23.9042583,14.5463639 23.0890274,15.8875602 C21.7262356,18.1295893 19.6057428,19.9310127 16.942774,21.3471931 C15.2750627,22.2340904 13.4948321,22.9172875 11.7152331,23.4246122 C11.0923388,23.6021857 10.5131398,23.7453174 9.99183209,23.8571821 C9.67506485,23.9251554 9.44502693,23.9680316 9.31596838,23.9889022 Z M11.2446138,21.9352235 C12.9170296,21.4584544 14.5888138,20.8168757 16.142983,19.9903606 C18.5677791,18.7008417 20.4717846,17.0833309 21.6712219,15.1100482 C22.3844501,13.936664 22.86038,12.6150775 23.1207039,11.1686986 C23.5784468,8.62544529 23.3555221,5.87541311 22.701974,3.20635999 C22.5649439,2.64673699 22.4187701,2.13486091 22.2725728,1.68052377 C21.8119622,1.78155387 21.3022716,1.90887147 20.7553862,2.0647765 C19.0829704,2.54154559 17.4111862,3.18312436 15.857017,4.00963944 C13.4322209,5.29915837 11.5282154,6.91666919 10.3287781,8.88995185 C9.61554987,10.0633361 9.13962005,11.3849225 8.87929611,12.8313014 C8.4215532,15.3745547 8.64447786,18.1245869 9.29802604,20.79364 C9.43505613,21.353263 9.58122992,21.8651391 9.72742717,22.3194762 C10.1880378,22.2184461 10.6977284,22.0911285 11.2446138,21.9352235 Z" id="Oval-5"></path>
                </g>
            </g>
        </g>
    </g>
</svg>