<?xml version="1.0" encoding="UTF-8" standalone="no"?>
<svg width="32px" height="25px" viewBox="0 0 32 25" version="1.1" xmlns="http://www.w3.org/2000/svg" xmlns:xlink="http://www.w3.org/1999/xlink">
    <!-- Generator: Sketch 42 (36781) - http://www.bohemiancoding.com/sketch -->
    <title>Group</title>
    <desc>Created with Sketch.</desc>
    <defs></defs>
    <g id="Page-1" stroke="none" stroke-width="1" fill="none" fill-rule="evenodd">
        <g id="Desktop" transform="translate(-629.000000, -890.000000)" fill-rule="nonzero" fill="#4A4A4A">
            <g id="Group-2" transform="translate(628.000000, 890.000000)">
                <g id="noun_879316_cc">
                    <g id="Group">
                        <g transform="translate(0.666667, 0.222222)" id="Shape">
                            <path d="M26.2442237,4.639362 L31.2389981,4.639362 C31.5081756,4.639362 31.7264055,4.85666333 31.7264055,5.12469533 L31.7264055,24.157042 C31.7264055,24.425074 31.5081756,24.6423753 31.2389981,24.6423753 L1.01973887,24.6423753 C0.750561428,24.6423753 0.532331463,24.425074 0.532331463,24.157042 L0.532331463,5.12469533 C0.532331463,4.85666333 0.750561428,4.639362 1.01973887,4.639362 L2.89277852,4.639362 C3.25840597,5.04000103 3.72684226,5.3575704 4.24624796,5.61002867 L1.50714628,5.61002867 L1.50714628,23.6717087 L30.7515907,23.6717087 L30.7515907,5.61002867 L26.2442237,5.61002867 L11.73179,5.61002867 C12.2320302,5.35694857 12.6824721,5.03883077 13.0386999,4.639362 L26.2442115,4.639362 L26.2442237,4.639362 Z"></path>
                            <path d="M8.35966185,9.92021333 C8.35966185,9.65218133 8.14143189,9.43488 7.87225444,9.43488 C7.603077,9.43488 7.38484704,9.65218133 7.38484704,9.92021333 L7.38484704,10.9060467 C7.38484704,11.1740787 7.603077,11.39138 7.87225444,11.39138 C8.14143189,11.39138 8.35966185,11.1740787 8.35966185,10.9060467 L8.35966185,9.92021333 Z"></path>
                            <path d="M8.35966185,12.738726 C8.35966185,12.470694 8.14143189,12.2533927 7.87225444,12.2533927 C7.603077,12.2533927 7.38484704,12.470694 7.38484704,12.738726 L7.38484704,13.7245593 C7.38484704,13.9925913 7.603077,14.2098927 7.87225444,14.2098927 C8.14143189,14.2098927 8.35966185,13.9925913 8.35966185,13.7245593 L8.35966185,12.738726 Z"></path>
                            <path d="M8.35966185,15.557178 C8.35966185,15.289146 8.14143189,15.0718447 7.87225444,15.0718447 C7.603077,15.0718447 7.38484704,15.289146 7.38484704,15.557178 L7.38484704,16.5430113 C7.38484704,16.8110433 7.603077,17.0283447 7.87225444,17.0283447 C8.14143189,17.0283447 8.35966185,16.8110433 8.35966185,16.5430113 L8.35966185,15.557178 Z"></path>
                            <path d="M8.35966185,18.37563 C8.35966185,18.107598 8.14143189,17.8902967 7.87225444,17.8902967 C7.603077,17.8902967 7.38484704,18.107598 7.38484704,18.37563 L7.38484704,19.3614633 C7.38484704,19.6294953 7.603077,19.8467967 7.87225444,19.8467967 C8.14143189,19.8467967 8.35966185,19.6294953 8.35966185,19.3614633 L8.35966185,18.37563 Z"></path>
                            <path d="M8.35966185,21.1941427 C8.35966185,20.9261107 8.14143189,20.7088093 7.87225444,20.7088093 C7.603077,20.7088093 7.38484704,20.9261107 7.38484704,21.1941427 L7.38484704,22.179976 C7.38484704,22.448008 7.603077,22.6653093 7.87225444,22.6653093 C8.14143189,22.6653093 8.35966185,22.448008 8.35966185,22.179976 L8.35966185,21.1941427 Z"></path>
                            <path d="M20.4317076,20.0510007 L20.4317076,19.0314913 C19.9188027,18.9676481 19.5030198,18.8535038 19.1824641,18.6890589 C18.8618835,18.524614 18.5840466,18.257657 18.3509227,17.8920081 C18.1177732,17.5244494 17.9817689,17.0775702 17.9448539,16.5494123 L18.9745751,16.3559718 C19.0542346,16.9034526 19.1941241,17.3058358 19.3961636,17.5631414 C19.6837151,17.9268307 20.0295313,18.1280342 20.4317155,18.1686614 L20.4317155,14.9224427 C20.0101032,14.8431222 19.5807448,14.680612 19.1397264,14.434912 C18.813317,14.2530794 18.5626811,14.0015755 18.3859021,13.6804492 C18.2090969,13.3592981 18.1216658,12.9956075 18.1216658,12.5873997 C18.1216658,11.8619295 18.3800733,11.2738207 18.8949193,10.8250087 C19.2407581,10.5212695 19.7536642,10.3374781 20.4317149,10.2697892 L20.4317149,9.78225855 L21.0359368,9.78225855 L21.0359368,10.2697892 C21.6304441,10.3258939 22.1044923,10.4999883 22.4522757,10.7901849 C22.9010646,11.1596782 23.169185,11.6684926 23.2605008,12.3146351 L22.2016386,12.4732523 C22.1414083,12.0728044 22.0151188,11.7651934 21.8227945,11.5524112 C21.6323888,11.3396004 21.370096,11.1983708 21.0359362,11.1306583 L21.0359362,14.0712263 C21.550784,14.2008473 21.8927375,14.301449 22.0598025,14.3730308 C22.3784402,14.5123014 22.6387907,14.6825503 22.8388867,14.8818185 C23.0409499,15.0830219 23.1963829,15.320959 23.3032427,15.5956771 C23.4120217,15.8723074 23.4664237,16.1702432 23.4664237,16.4913719 C23.4664237,17.1994307 23.2391267,17.7875577 22.788373,18.2595929 C22.3376411,18.7335573 21.7528455,18.9850631 21.0359362,19.0198857 L21.0359362,20.0510067 L20.4317143,20.0510067 L20.4317076,20.0510007 Z M20.4317076,11.1190473 C20.0334104,11.1790214 19.7186854,11.3376621 19.4894211,11.5949701 C19.2601575,11.8522537 19.1455497,12.1559935 19.1455497,12.5080762 C19.1455497,12.8543779 19.2426711,13.1464837 19.4389056,13.3805781 C19.6351401,13.6146702 19.965411,13.8023067 20.4317119,13.9416016 L20.4317119,11.1190485 L20.4317076,11.1190473 Z M21.0359295,18.1686353 C21.4342029,18.1202692 21.7625565,17.9480859 22.0228808,17.6540437 C22.2832312,17.3599778 22.4134062,16.9943543 22.4134062,16.5590589 C22.4134062,16.1895655 22.3201463,15.8916285 22.1375123,15.6672346 C21.9529597,15.4428159 21.5857488,15.2416124 21.0359289,15.0636492 L21.0359289,18.1686359 L21.0359295,18.1686353 Z"></path>
                            <g transform="translate(2.203704, 0.000000)">
                                <path d="M5.69627204,6.035302 C2.78382391,5.79325656 1.29531215,4.8727952 0.711355426,3.8514476 C0.114041304,2.80668873 0.424547848,1.67771847 1.14553673,0.9597952 C1.86652804,0.241871933 3.00034734,-0.0673096667 4.04954661,0.52746148 C5.07801889,1.11048271 6.00471441,2.59891875 6.24477474,5.51443135 L6.24518252,5.51440746 C6.26713023,5.7815319 6.06744209,6.01586296 5.7991761,6.03771692 C5.7641797,6.04055917 5.72975893,6.03962768 5.69627343,6.03530458 L5.69627204,6.035302 Z M1.55669046,3.37370973 C1.96647702,4.09043787 3.05661974,4.74948413 5.214811,5.011734 C4.95143858,2.8627508 4.28955333,1.7772482 3.56976226,1.3692042 C2.9508828,1.01836462 2.27196693,1.21075439 1.83476248,1.64609718 C1.39755926,2.08143997 1.20434974,2.75744378 1.5566862,3.37371398 L1.55669046,3.37370973 Z"></path>
                                <path d="M5.276005,5.491122 C5.51908482,2.59106727 6.44347978,1.1088896 7.46919211,0.5274178 C8.51841576,-0.06735456 9.65221069,0.24183068 10.373202,0.95975152 C11.0941933,1.67767479 11.4046962,2.80666932 10.8073833,3.85140392 C10.2218705,4.87549972 8.72707365,5.79825185 5.7991016,6.03729065 L5.79912558,6.03769669 C5.53085959,6.05955101 5.29552711,5.86071261 5.27357976,5.59358818 C5.27072536,5.5587407 5.27166084,5.5244664 5.27600241,5.49112339 L5.276005,5.491122 Z M7.94897159,1.36915567 C7.22918052,1.77719845 6.56731781,2.86270227 6.30394722,5.01170973 C8.46211411,4.74945805 9.55225561,4.09038933 9.96204339,3.3736612 C10.3143823,2.757391 10.1211703,2.0813884 9.68396711,1.6460444 C9.24676388,1.21070161 8.56787116,1.01831427 7.94896733,1.36915142 L7.94897159,1.36915567 Z"></path>
                                <path d="M5.74032148,5.07058067 C5.47219928,5.08104209 5.26334825,5.30601041 5.27385431,5.57299167 C5.28436044,5.83997293 5.51029016,6.04793523 5.77841237,6.03747387 C5.77946778,6.03744998 6.15382635,5.97348752 6.8901643,10.4581143 C6.93326817,10.7219664 7.18304071,10.9010762 7.44802035,10.8581558 C7.713,10.8152353 7.89287526,10.5665257 7.84977139,10.3026736 C6.972895,4.96214446 5.74384239,5.07043446 5.74032087,5.07058006 L5.74032148,5.07058067 Z"></path>
                                <path d="M5.74032148,6.037486 C6.00844369,6.04794742 6.23437347,5.83998506 6.24487954,5.5730038 C6.25538566,5.30602254 6.04653458,5.08105416 5.77841237,5.0705928 C5.77488634,5.07044949 4.54583824,4.9621572 3.66896185,10.3026863 C3.62585798,10.5665384 3.80573324,10.8152481 4.07071289,10.8581685 C4.33569254,10.901089 4.58546507,10.7219791 4.62856895,10.4581271 C5.3649075,5.97350147 5.73926685,6.03746234 5.74032087,6.03748661 L5.74032148,6.037486 Z"></path>
                            </g>
                        </g>
                    </g>
                </g>
            </g>
        </g>
    </g>
</svg>