<?xml version="1.0" encoding="UTF-8" standalone="no"?>
<svg width="71px" height="72px" viewBox="0 0 71 72" version="1.1" xmlns="http://www.w3.org/2000/svg" xmlns:xlink="http://www.w3.org/1999/xlink">
    <!-- Generator: Sketch 42 (36781) - http://www.bohemiancoding.com/sketch -->
    <title>chicken</title>
    <desc>Created with Sketch.</desc>
    <defs></defs>
    <g id="Page-1" stroke="none" stroke-width="1" fill="none" fill-rule="evenodd">
        <g id="Desktop-Copy-2" transform="translate(-477.000000, -1217.000000)" fill="#5DB1E0">
            <g id="Group-4" transform="translate(0.000000, 1062.000000)">
                <g id="Group-3" transform="translate(42.000000, 46.000000)">
                    <g id="chicken" transform="translate(435.000000, 109.000000)">
                        <path d="M29.2877419,43.1845161 C25.1419355,43.1852903 22.008,42.0487742 21.9375484,42.0224516 L20.2629677,41.3945806 L22.4276129,39.2291613 C15.6061935,38.28 13.1899355,32.876129 13.0792258,32.6190968 L12.3011613,30.8183226 L15.3956129,31.1341935 C12.4327742,28.1868387 11.8861935,23.9086452 12.1625806,21.3901935 L14.4526452,21.6418065 L13.3076129,21.5156129 L14.4526452,21.6387097 C14.4162581,21.984 13.652129,30.1254194 21.4258065,31.7550968 L21.072,34.028129 L16.4221935,33.5535484 C17.8056774,35.1646452 20.472,37.2178065 25.0350968,37.0575484 L27.9576774,36.9553548 L24.5295484,40.3827097 C28.5352258,41.3256774 38.2397419,42.3553548 43.635871,32.1987097 L45.7463226,27.6944516 C46.3989677,25.8449032 46.9277419,22.7876129 46.0110968,21.9863226 C45.7842581,21.788129 44.7932903,21.2717419 41.5687742,22.9447742 L40.5073548,20.9009032 C43.7860645,19.1992258 46.0823226,18.987871 47.5285161,20.2536774 C49.9494194,22.3726452 48.2585806,27.5140645 47.8962581,28.5228387 L47.8552258,28.6211613 L45.696,33.2276129 C41.3705806,41.3729032 34.5220645,43.1845161 29.2877419,43.1845161 Z" id="Shape"></path>
                        <polygon id="Shape" points="30.1455484 71.9403871 29.2196129 69.8307097 32.6763871 68.3132903 30.048 61.484129 32.1971613 60.6572903 35.6152258 69.5380645"></polygon>
                        <rect id="Rectangle-path" transform="translate(37.672136, 69.907664) rotate(15.533005) translate(-37.672136, -69.907664) " x="34.0116595" y="68.7560224" width="7.32095388" height="2.30328234"></rect>
                        <ellipse id="Oval" cx="58.9765161" cy="10.0676129" rx="0.935225806" ry="0.935225806"></ellipse>
                        <path d="M65.4046452,9.51251613 L63.5140645,8.19793548 C65.7894194,4.92541935 65.5819355,4.13419355 65.571871,4.10167742 C65.3009032,3.89264516 63.7788387,3.93832258 62.8691613,3.96696774 C61.0784516,4.0203871 59.0500645,4.08232258 57.4908387,3.23458065 C57.3011613,3.1316129 56.8381935,2.90632258 56.6190968,3.04258065 C56.0376774,3.40645161 55.6397419,5.41935484 55.7326452,7.52903226 L55.7566452,8.07716129 L55.347871,8.45574194 L54.5829677,7.59483871 L53.4332903,7.63896774 C53.3636129,6.07741935 53.4170323,2.32954839 55.3981935,1.09083871 C56.0276129,0.697548387 57.0929032,0.397935484 58.5909677,1.2116129 C59.6043871,1.76206452 61.3037419,1.71096774 62.8002581,1.66451613 C64.8588387,1.60258065 66.8043871,1.54374194 67.6033548,3.01858065 C68.324129,4.34864516 67.6877419,6.22993548 65.4046452,9.51251613 Z" id="Shape"></path>
                        <path d="M30.6867097,62.2900645 C30.3329032,62.2900645 29.9806452,62.2397419 29.6392258,62.1406452 C27.6572903,61.563871 26.5145806,59.4812903 27.0913548,57.5009032 L27.1347097,57.3538065 C16.3285161,55.5592258 12.2903226,47.6771613 11.4990968,45.8709677 C6.5643871,42.476129 3.18193548,37.7790968 1.44309677,31.9045161 L0.707612903,29.420129 L3.04490323,30.5388387 C3.82683871,30.9135484 4.296,30.9917419 4.55303226,30.9917419 C4.824,30.9917419 4.9076129,30.9112258 4.97496774,30.8229677 C5.74141935,29.8188387 5.31019355,26.300129 3.69135484,20.3651613 C3.1323871,18.0317419 2.38064516,13.9610323 3.51948387,12.5171613 C3.86322581,12.0805161 4.35406452,11.8397419 4.89987097,11.8397419 C5.81419355,11.8397419 6.74864516,12.476129 8.02374194,13.968 L8.09341935,14.0415484 L8.16232258,14.1576774 C11.4743226,19.7845161 16.6289032,23.2312258 23.4843871,24.4018065 C25.9370323,24.8206452 28.0405161,25.0242581 29.9163871,25.0242581 C37.4694194,25.0242581 40.1473548,21.6046452 44.2010323,16.4299355 C45.7803871,14.4131613 47.5710968,12.1269677 49.8975484,9.7323871 C52.6498065,6.89806452 55.5491613,5.46116129 58.5143226,5.46116129 C64.8209032,5.46116129 68.9566452,11.9326452 69.1300645,12.2082581 L70.5979355,14.5470968 L67.9029677,13.9447742 C65.4387097,13.3943226 63.4954839,13.8983226 61.9594839,15.5086452 C57.6905806,19.9803871 58.299871,31.0296774 58.3045161,31.1411613 L58.4508387,31.1868387 L58.4508387,31.2332903 C58.4508387,31.460129 57.3298065,53.9922581 37.3370323,57.2516129 C36.5790968,57.3747097 35.7421935,57.4730323 34.9470968,57.5496774 L34.3153548,59.595871 C33.8531613,61.1814194 32.3388387,62.2900645 30.6867097,62.2900645 Z M4.34709677,33.4529032 C6.10141935,37.964129 9.02864516,41.5300645 13.0722581,44.2366452 L13.3803871,44.4015484 L13.5104516,44.7282581 C13.6529032,45.1014194 17.1545806,53.9566452 28.7419355,55.2627097 L30.1014194,55.4105806 L29.304,58.1465806 C29.0818065,58.9083871 29.5215484,59.7089032 30.284129,59.9310968 C31.0350968,60.147871 31.8526452,59.6910968 32.067871,58.9494194 L33.1068387,55.3803871 L33.9027097,55.32 C34.9254194,55.2425806 35.88,55.1295484 36.8214194,54.9762581 C54.6975484,52.0629677 55.803871,32.5215484 55.8580645,31.1976774 C55.8170323,30.2299355 55.4562581,18.9886452 60.291871,13.92 C61.7512258,12.3901935 63.5303226,11.5579355 65.588129,11.4418065 C64.0621935,9.80903226 61.5468387,7.7643871 58.5150968,7.7643871 C56.1963871,7.7643871 53.8536774,8.96670968 51.5504516,11.3372903 C49.3083871,13.6443871 47.5587097,15.8794839 46.0149677,17.8505806 C41.8676129,23.1460645 38.5912258,27.3282581 29.9171613,27.3282581 C27.9104516,27.3282581 25.6792258,27.1138065 23.0972903,26.6732903 C15.6851613,25.4074839 9.85548387,21.5156129 6.23148387,15.4165161 C5.78864516,14.9016774 5.46270968,14.5927742 5.23741935,14.4077419 C5.14529032,15.4451613 5.41780645,17.6818065 5.92335484,19.7953548 C7.55767742,25.7891613 8.33883871,30.3793548 6.80670968,32.3860645 C6.27019355,33.0890323 5.49135484,33.6247742 4.55458065,33.6247742 L4.55225806,33.6247742 C4.48412903,33.6232258 4.41677419,33.4567742 4.34709677,33.4529032 Z" id="Shape"></path>
                        <path d="M40.3896774,51.8461935 L39.5125161,49.7171613 C50.1189677,45.3491613 51.1726452,31.3997419 51.1819355,31.2596129 L53.4797419,31.4105806 C53.4379355,32.0407742 52.3370323,46.9269677 40.3896774,51.8461935 Z" id="Shape"></path>
                    </g>
                </g>
            </g>
        </g>
    </g>
</svg>