<?xml version="1.0" encoding="UTF-8" standalone="no"?>
<svg width="72px" height="72px" viewBox="0 0 72 72" version="1.1" xmlns="http://www.w3.org/2000/svg" xmlns:xlink="http://www.w3.org/1999/xlink">
    <!-- Generator: Sketch 42 (36781) - http://www.bohemiancoding.com/sketch -->
    <title>Combined Shape</title>
    <desc>Created with Sketch.</desc>
    <defs></defs>
    <g id="Page-1" stroke="none" stroke-width="1" fill="none" fill-rule="evenodd">
        <g id="Desktop-Copy-2" transform="translate(-157.000000, -1217.000000)" fill="#5DB1E0">
            <g id="Group-4" transform="translate(0.000000, 1062.000000)">
                <g id="Group-3" transform="translate(42.000000, 46.000000)">
                    <path d="M186.970612,130.012245 L186.970612,123.717388 L186.970612,123.717388 C186.970612,123.56751 186.970612,123.417633 186.820735,123.267755 C186.820735,123.267755 186.820735,123.267755 186.820735,123.117878 C186.820735,122.968 186.670857,122.968 186.670857,122.818122 L176.778939,109.628898 C176.479184,109.179265 176.029551,109.029388 175.579918,109.029388 L165.688,109.029388 L155.796082,109.029388 L145.904163,109.029388 L136.012245,109.029388 L126.420082,109.029388 C125.970449,109.029388 125.520816,109.179265 125.221061,109.628898 L115.329143,122.818122 C115.329143,122.968 115.179265,122.968 115.179265,123.117878 C115.179265,123.117878 115.179265,123.117878 115.179265,123.267755 C115.179265,123.417633 115.029388,123.56751 115.029388,123.717388 L115.029388,123.717388 L115.029388,130.012245 C115.029388,132.560163 116.228408,134.958204 118.176816,136.45698 C118.026939,136.606857 118.026939,136.906612 118.026939,137.05649 L118.026939,177.973061 L116.528163,177.973061 C115.628898,177.973061 115.029388,178.572571 115.029388,179.471837 C115.029388,180.371102 115.628898,180.970612 116.528163,180.970612 L119.525714,180.970612 L127.619102,180.970612 L146.054041,180.970612 L182.474286,180.970612 L185.471837,180.970612 C186.371102,180.970612 186.970612,180.371102 186.970612,179.471837 C186.970612,178.572571 186.371102,177.973061 185.471837,177.973061 L183.973061,177.973061 L183.973061,136.906612 C183.973061,136.756735 183.973061,136.606857 183.823184,136.45698 C185.771592,134.958204 186.970612,132.560163 186.970612,130.012245 Z M182.474286,122.218612 L172.732245,122.218612 L168.235918,112.326694 L168.086041,112.176816 L174.830531,112.176816 L182.474286,122.218612 Z M142.606857,130.012245 C142.606857,133.009796 140.208816,135.407837 137.211265,135.407837 C134.213714,135.407837 131.815673,133.009796 131.815673,130.012245 L131.815673,125.216163 L142.606857,125.216163 L142.606857,130.012245 Z M137.211265,112.026939 L144.405388,112.026939 L142.906612,122.218612 L132.714939,122.218612 L132.864816,122.068735 L137.211265,112.026939 Z M164.788735,112.026939 L169.285061,121.918857 L169.434939,122.068735 L159.243265,122.068735 L157.74449,111.877061 L164.788735,111.877061 L164.788735,112.026939 Z M156.095837,122.218612 L145.754286,122.218612 L147.253061,112.026939 L154.447184,112.026939 L156.095837,122.218612 Z M145.604408,125.216163 L156.395592,125.216163 L156.395592,130.012245 C156.395592,133.009796 153.997551,135.407837 151,135.407837 C148.002449,135.407837 145.604408,133.009796 145.604408,130.012245 L145.604408,125.216163 L145.604408,125.216163 Z M159.393143,125.216163 L170.184327,125.216163 L170.184327,130.012245 C170.184327,133.009796 167.786286,135.407837 164.788735,135.407837 C161.791184,135.407837 159.393143,133.009796 159.393143,130.012245 L159.393143,125.216163 Z M127.169469,112.026939 L133.913959,112.026939 L133.764082,112.176816 L129.267755,122.068735 L119.525714,122.068735 L127.169469,112.026939 Z M118.026939,125.216163 L128.818122,125.216163 L128.818122,130.012245 C128.818122,133.009796 126.420082,135.407837 123.422531,135.407837 C120.42498,135.407837 118.026939,133.009796 118.026939,130.012245 L118.026939,125.216163 L118.026939,125.216163 Z M129.117878,177.973061 L129.117878,146.798531 L144.555265,146.798531 L144.555265,177.973061 L129.117878,177.973061 Z M180.97551,177.973061 L147.552816,177.973061 L147.552816,145.299755 C147.552816,144.40049 146.953306,143.80098 146.054041,143.80098 L127.619102,143.80098 C126.719837,143.80098 126.120327,144.40049 126.120327,145.299755 L126.120327,177.973061 L121.02449,177.973061 L121.02449,137.955755 C121.773878,138.25551 122.523265,138.405388 123.422531,138.405388 C126.270204,138.405388 128.818122,136.906612 130.316898,134.808327 C131.815673,137.05649 134.363592,138.405388 137.211265,138.405388 C140.058939,138.405388 142.606857,136.906612 144.105633,134.808327 C145.604408,137.05649 148.152327,138.405388 151,138.405388 C153.847673,138.405388 156.395592,136.906612 157.894367,134.808327 C159.393143,137.05649 161.941061,138.405388 164.788735,138.405388 C167.636408,138.405388 170.184327,136.906612 171.683102,134.808327 C173.181878,137.05649 175.729796,138.405388 178.577469,138.405388 C179.476735,138.405388 180.226122,138.25551 180.97551,138.105633 L180.97551,177.973061 L180.97551,177.973061 Z M183.973061,130.012245 C183.973061,133.009796 181.57502,135.407837 178.577469,135.407837 C175.579918,135.407837 173.181878,133.009796 173.181878,130.012245 L173.181878,125.216163 L183.973061,125.216163 L183.973061,130.012245 Z M177.078694,148.597061 C177.977959,148.597061 178.577469,149.196571 178.577469,150.095837 L178.577469,164.334204 C178.577469,165.233469 177.977959,165.83298 177.078694,165.83298 L153.697796,165.83298 C152.798531,165.83298 152.19902,165.233469 152.19902,164.334204 L152.19902,150.095837 C152.19902,149.196571 152.798531,148.597061 153.697796,148.597061 L177.078694,148.597061 Z M175.579918,162.835429 L175.579918,151.594612 L155.196571,151.594612 L155.196571,162.835429 L175.579918,162.835429 Z" id="Combined-Shape"></path>
                </g>
            </g>
        </g>
    </g>
</svg>