<?xml version="1.0" encoding="UTF-8" standalone="no"?>
<svg width="93px" height="110px" viewBox="0 0 93 110" version="1.1" xmlns="http://www.w3.org/2000/svg" xmlns:xlink="http://www.w3.org/1999/xlink">
    <!-- Generator: Sketch 42 (36781) - http://www.bohemiancoding.com/sketch -->
    <title>Group 2</title>
    <desc>Created with Sketch.</desc>
    <defs></defs>
    <g id="Page-1" stroke="none" stroke-width="1" fill="none" fill-rule="evenodd">
        <g id="Desktop-Copy-8" transform="translate(-325.000000, -616.000000)">
            <g id="Group-2" transform="translate(325.000000, 606.000000)">
                <path d="M4.06297194,119.632282 C4.62208061,119.564171 5.57262733,119.388151 6.87097975,119.056342 C8.96489932,118.521216 11.3185547,117.734599 13.8875938,116.648744 C21.1412175,113.582858 28.7237216,108.74971 36.2736544,101.777161 C42.4663529,96.0580502 48.3443593,89.9435924 54.3565517,82.2252777 C63.4277525,70.5798783 69.8860796,58.6611301 72.6172993,46.7640225 C72.9880199,45.1491751 71.9794559,43.5395541 70.3646084,43.1688335 C68.749761,42.7981129 67.1401401,43.806677 66.7694194,45.4215244 C64.2630495,56.3391935 58.2019147,67.524929 49.623132,78.5381735 C43.8450985,85.9558802 38.1760081,91.853018 32.2029081,97.3693238 C25.1704179,103.864003 18.1763349,108.322086 11.551663,111.122134 C9.2632987,112.089356 7.19379452,112.781006 5.38535533,113.243174 C4.76811216,113.400918 4.2320723,113.518536 3.78258199,113.601772 C3.53517505,113.647586 3.38499272,113.670517 3.33741868,113.676312 C1.69272313,113.876668 0.521854572,115.372378 0.722210572,117.017074 C0.922566571,118.661769 2.41827638,119.832638 4.06297194,119.632282 Z" id="Path-2" fill="#4A4A4A" fill-rule="nonzero"></path>
                <path d="M59.3826859,106.80127 C59.3826859,106.80127 86.3826859,84.4155077 86.3826859,56.8012702 C86.3826859,29.1870327 59.3826859,6.80127019 59.3826859,6.80127019 C59.3826859,6.80127019 32.3826859,29.1870327 32.3826859,56.8012702 C32.3826859,84.4155077 59.3826859,106.80127 59.3826859,106.80127 Z" id="Oval-5" stroke="#4A4A4A" stroke-width="6" stroke-linecap="round" stroke-linejoin="round" transform="translate(59.382686, 56.801270) rotate(30.000000) translate(-59.382686, -56.801270) "></path>
            </g>
        </g>
    </g>
</svg>