<?xml version="1.0" encoding="UTF-8" standalone="no"?>
<svg width="40px" height="68px" viewBox="0 0 40 68" version="1.1" xmlns="http://www.w3.org/2000/svg" xmlns:xlink="http://www.w3.org/1999/xlink">
    <!-- Generator: Sketch 42 (36781) - http://www.bohemiancoding.com/sketch -->
    <title>Shape</title>
    <desc>Created with Sketch.</desc>
    <defs></defs>
    <g id="Page-1" stroke="none" stroke-width="1" fill="none" fill-rule="evenodd">
        <g id="Desktop-Copy-2" transform="translate(-813.000000, -1221.000000)" fill-rule="nonzero" fill="#5DB1E0">
            <g id="Group-4" transform="translate(0.000000, 1062.000000)">
                <g id="Group-3" transform="translate(42.000000, 46.000000)">
                    <path d="M791.214988,113.570425 C796.088044,113.570425 800.945553,115.326667 804.653507,118.412159 C808.588848,121.686436 810.913103,126.222465 810.913103,131.166316 C810.913103,136.058876 809.832292,139.666037 807.732181,142.440699 C806.49577,144.074025 805.153881,145.25387 802.860623,146.913273 C802.727443,147.009641 802.590637,147.108144 802.412963,147.235712 C802.189978,147.39572 802.189978,147.39572 801.968133,147.555003 C801.669508,147.769599 801.446407,147.931129 801.22996,148.089999 C798.430256,150.144474 796.877054,151.726915 795.577532,154.206589 C793.890845,157.425033 792.994913,161.827189 792.994863,167.981168 C793.008635,168.951983 792.173538,169.82266 791.215116,169.82266 C790.255433,169.82266 789.417381,168.950318 789.43519,167.98826 C789.43519,161.283494 790.463981,156.262122 792.452051,152.468499 C794.03681,149.444473 795.981688,147.449138 799.118315,145.146808 C799.48345,144.878839 801.009416,143.782529 801.39393,143.498907 C803.064158,142.266925 804.098562,141.339251 804.934852,140.234357 C806.559118,138.089131 807.353252,135.388963 807.353252,131.166316 C807.353252,127.319658 805.565483,123.816796 802.41399,121.194492 C799.382908,118.672276 795.262207,117.200562 791.214988,117.200562 C783.521433,117.200562 776.577149,122.546767 775.031068,128.899235 C774.8781,129.903108 773.824889,130.626287 772.850559,130.384098 C771.881332,130.143158 771.271611,129.015008 771.5711,128.089302 C773.553738,119.933623 781.825907,113.570425 791.214988,113.570425 Z M794.274711,177.193739 C794.274711,178.919514 792.907945,180.323876 791.214988,180.323876 C789.522031,180.323876 788.155265,178.919514 788.155265,177.193739 C788.155265,175.467964 789.522031,174.063602 791.214988,174.063602 C792.907945,174.063602 794.274711,175.467964 794.274711,177.193739 Z" id="Shape"></path>
                </g>
            </g>
        </g>
    </g>
</svg>