<?xml version="1.0" encoding="UTF-8" standalone="no"?>
<svg width="491px" height="104px" viewBox="0 0 491 104" version="1.1" xmlns="http://www.w3.org/2000/svg" xmlns:xlink="http://www.w3.org/1999/xlink">
    <!-- Generator: Sketch 41 (35326) - http://www.bohemiancoding.com/sketch -->
    <title>Group</title>
    <desc>Created with Sketch.</desc>
    <defs></defs>
    <g id="Page-1" stroke="none" stroke-width="1" fill="none" fill-rule="evenodd">
        <g id="Group" fill="#FFFFFF">
            <path d="M52,6 C63.345,6 73.009,15.812 79.102,29.133 C79.164,29.268 79.312,29.337 79.454,29.294 C80.707,28.918 81.988,28.611 83.303,28.401 C83.497,28.37 83.613,28.165 83.534,27.984 C76.662,12.126 65.009,0 52,0 C37.223,0 24.191,15.64 17.934,34.631 C17.863,34.847 18.101,35.025 18.291,34.902 C19.793,33.925 21.441,33.163 23.192,32.668 C23.337,32.627 23.454,32.523 23.509,32.383 C29.46,17.438 39.75,6 52,6" id="Fill-23"></path>
            <path d="M75.899,66 L83.709,66 C84.885,66 85.845,67.014 85.702,68.181 C83.639,84.982 69.358,98 52,98 C34.642,98 20.361,84.982 18.298,68.181 C18.155,67.014 19.115,66 20.291,66 L69.546,66 C70.821,66 71.791,67.184 71.515,68.428 C69.464,77.675 61.061,84 51,84 C45.366,84 40.215,82.617 36.444,79.556 C36.053,79.166 35.42,79.166 35.029,79.556 C34.639,79.947 34.639,80.58 35.029,80.971 C39.373,85.314 45.373,88 52,88 C64.58,88 74.88,78.317 75.899,66 Z M17.999,51.539 C20.742,49.333 24.214,48 27.999,48 C36.144,48 42.887,54.118 43.875,62 L19.999,62 C18.894,62 17.999,61.104 17.999,60 L17.999,51.539 Z M13.999,60.764 L6.472,57 L13.999,53.236 L13.999,60.764 Z M88,42 L90,42 L90,34 C90,32.895 89.105,32 88,32 C73.641,32 62,43.641 62,58 L62,60 C62,61.104 61.105,62 60,62 L49.65,62 C48.703,62 47.845,61.351 47.675,60.419 C47.105,57.3 45.799,54.439 43.961,52 L46,52 C53.732,52 60,45.732 60,38 L60,37 C60,36.448 59.552,36 59,36 L51.999,36 L52,32.382 C52.001,31.639 51.218,31.155 50.553,31.487 L42,35.764 L42,32.382 C42,31.638 41.218,31.155 40.553,31.487 L31.527,36 L27.999,36 C20.707,36 14.707,41.605 14.063,48.732 L1.106,55.211 C-0.368,55.948 -0.368,58.052 1.106,58.789 L8,62.236 L11.527,64 L12.472,64.473 C10.758,66.583 8.667,69.636 8.667,72 C8.667,75.314 11.353,78 14.667,78 C15.096,78 15.512,77.951 15.915,77.866 C20.902,93.036 35.161,104 52,104 C72.987,104 90,86.987 90,66 L90,48 C90,46.895 89.105,46 88,46 C81.158,46 75.105,51.289 74.55,58 C74.55,58.414 74.215,58.75 73.8,58.75 C73.386,58.75 73.05,58.414 73.05,58 C73.028,57.668 73,57.338 73,57 C73,48.716 79.716,42 88,42 L88,42 Z" id="Fill-24"></path>
            <path d="M26.999,58 C28.656,58 29.999,56.657 29.999,55 C29.999,53.343 28.656,52 26.999,52 C25.342,52 23.999,53.343 23.999,55 C23.999,56.657 25.342,58 26.999,58" id="Fill-25"></path>
            <path d="M141.204,60.567 C141.204,56.256 137.62,53.792 130.788,53.792 L118.412,53.792 L118.412,67.624 L131.572,67.624 C137.508,67.624 141.204,64.991 141.204,60.567 Z M139.02,42.815 C139.02,38.896 135.939,36.376 130.34,36.376 L118.412,36.376 L118.412,49.872 L130.004,49.872 C135.324,49.872 139.02,47.464 139.02,42.815 Z M143.5,42.2 C143.5,47.352 140.364,49.983 137.284,51.328 C141.932,52.728 145.684,55.416 145.684,60.848 C145.684,67.624 140.028,71.6 131.46,71.6 L114.044,71.6 L114.044,32.399 L130.731,32.399 C138.46,32.399 143.5,36.208 143.5,42.2 L143.5,42.2 Z" id="Fill-26"></path>
            <path d="M171.107,42.647 L175.363,42.647 L175.363,71.6 L171.107,71.6 L171.107,66.56 C169.147,69.695 166.179,72.216 161.195,72.216 C154.195,72.216 150.107,67.512 150.107,60.624 L150.107,42.647 L154.419,42.647 L154.419,59.56 C154.419,64.936 157.331,68.296 162.427,68.296 C167.355,68.296 171.107,64.655 171.107,59.224 L171.107,42.647" id="Fill-27"></path>
            <path d="M196.756,72.552 C194.292,78.544 191.492,80.728 187.124,80.728 C184.716,80.728 182.924,80.224 180.964,79.271 L182.42,75.855 C183.82,76.584 185.108,76.92 186.956,76.92 C189.532,76.92 191.156,75.575 192.892,71.487 L179.732,42.647 L184.492,42.647 L195.021,66.783 L204.316,42.647 L208.908,42.647 L196.756,72.552" id="Fill-28"></path>
            <path d="M213.482,71.6 L217.794,71.6 L217.794,42.647 L213.482,42.647 L213.482,71.6 Z M213.202,36.319 L218.131,36.319 L218.131,31.56 L213.202,31.56 L213.202,36.319 Z" id="Fill-29"></path>
            <path d="M229.828,71.6 L225.517,71.6 L225.517,42.647 L229.828,42.647 L229.828,47.688 C231.732,44.552 234.756,42.031 239.74,42.031 C246.74,42.031 250.828,46.735 250.828,53.624 L250.828,71.6 L246.516,71.6 L246.516,54.688 C246.516,49.312 243.604,45.952 238.508,45.952 C233.524,45.952 229.828,49.592 229.828,55.023 L229.828,71.6" id="Fill-30"></path>
            <path d="M270.093,45.84 C264.604,45.84 260.068,49.592 260.068,55.64 C260.068,61.575 264.717,65.552 270.093,65.552 C275.581,65.552 280.732,61.632 280.732,55.695 C280.732,49.704 275.581,45.84 270.093,45.84 Z M270.148,80.672 C265.333,80.672 260.853,79.327 256.988,76.64 L258.949,73.279 C262.253,75.688 265.949,76.976 270.093,76.976 C276.477,76.976 280.621,73.447 280.621,66.672 L280.621,63.256 C278.101,66.615 274.572,69.359 269.253,69.359 C262.309,69.359 255.645,64.208 255.645,55.752 C255.645,47.239 262.365,42.031 269.253,42.031 C274.685,42.031 278.213,44.72 280.564,47.855 L280.564,42.647 L284.877,42.647 L284.877,66.56 C284.877,75.911 279.053,80.672 270.148,80.672 L270.148,80.672 Z" id="Fill-31"></path>
            <path d="M315.425,46.12 C315.425,42.256 312.736,40.184 308.425,40.184 L301.761,40.184 L301.761,52.168 L308.593,52.168 C312.904,52.168 315.425,49.592 315.425,46.231 L315.425,46.12 Z M308.313,59.84 L301.761,59.84 L301.761,71.6 L293.137,71.6 L293.137,32.399 L309.152,32.399 C318.505,32.399 324.16,37.943 324.16,45.952 L324.16,46.063 C324.16,55.136 317.104,59.84 308.313,59.84 L308.313,59.84 Z" id="Fill-32"></path>
            <path d="M350.816,56.647 C350.816,52.224 347.625,48.359 342.921,48.359 C338.049,48.359 335.137,52.111 335.137,56.536 L335.137,56.647 C335.137,61.071 338.329,64.936 343.032,64.936 C347.904,64.936 350.816,61.184 350.816,56.76 L350.816,56.647 Z M342.921,72.271 C333.625,72.271 326.736,65.384 326.736,56.76 L326.736,56.647 C326.736,48.023 333.681,41.023 343.032,41.023 C352.329,41.023 359.217,47.912 359.217,56.536 L359.217,56.647 C359.217,65.271 352.272,72.271 342.921,72.271 L342.921,72.271 Z" id="Fill-33"></path>
            <path d="M382.904,71.6 L382.904,67.344 C380.943,69.863 378.424,72.159 374.112,72.159 C367.672,72.159 363.92,67.903 363.92,61.016 L363.92,41.584 L372.432,41.584 L372.432,58.328 C372.432,62.359 374.336,64.432 377.584,64.432 C380.832,64.432 382.904,62.359 382.904,58.328 L382.904,41.584 L391.416,41.584 L391.416,71.6 L382.904,71.6" id="Fill-34"></path>
            <polygon id="Fill-35" points="398.887 71.6 407.398 71.6 407.398 30.72 398.887 30.72"></polygon>
            <path d="M425.128,72.104 C419.92,72.104 416.392,70.031 416.392,63.088 L416.392,48.863 L412.808,48.863 L412.808,41.584 L416.392,41.584 L416.392,33.912 L424.903,33.912 L424.903,41.584 L431.96,41.584 L431.96,48.863 L424.903,48.863 L424.903,61.688 C424.903,63.647 425.743,64.6 427.647,64.6 C429.216,64.6 430.615,64.208 431.848,63.535 L431.848,70.367 C430.056,71.432 427.983,72.104 425.128,72.104" id="Fill-36"></path>
            <path d="M455.814,49.928 C450.158,49.928 446.687,53.344 446.687,60.512 L446.687,71.6 L438.174,71.6 L438.174,41.584 L446.687,41.584 L446.687,47.632 C448.422,43.487 451.222,40.8 456.262,41.023 L456.262,49.928 L455.814,49.928" id="Fill-37"></path>
            <path d="M478.909,72.327 C476.613,78.432 474.149,80.728 469.053,80.728 C465.973,80.728 463.677,79.943 461.493,78.655 L464.35,72.496 C465.469,73.168 466.869,73.672 467.989,73.672 C469.445,73.672 470.229,73.224 470.957,71.712 L459.197,41.584 L468.213,41.584 L475.045,62.023 L481.597,41.584 L490.445,41.584 L478.909,72.327" id="Fill-38"></path>
        </g>
    </g>
</svg>