<?xml version="1.0" encoding="UTF-8" standalone="no"?>
<svg width="38px" height="31px" viewBox="0 0 38 31" version="1.1" xmlns="http://www.w3.org/2000/svg" xmlns:xlink="http://www.w3.org/1999/xlink">
    <!-- Generator: Sketch 42 (36781) - http://www.bohemiancoding.com/sketch -->
    <title>noun_51820_cc</title>
    <desc>Created with Sketch.</desc>
    <defs></defs>
    <g id="Page-1" stroke="none" stroke-width="1" fill="none" fill-rule="evenodd">
        <g id="Desktop" transform="translate(-626.000000, -786.000000)" fill-rule="nonzero" fill="#4A4A4A">
            <g id="Group-5" transform="translate(626.000000, 786.000000)">
                <g id="noun_51820_cc">
                    <g id="Group">
                        <g id="Combined-Shape">
                            <path d="M24.6148132,0.316702703 L21.8738022,3.06648649 L4.00879121,3.06648649 L1.26778022,0.316702703 L0.0868571429,1.50140541 L2.82786813,4.25118919 L2.82786813,20.2807027 L2.82786813,29.9723919 L3.66303297,30.8102297 L22.2195604,30.8102297 L23.0547253,29.9723919 L23.0547253,20.4445 L23.0547253,10.7528108 L23.0547253,4.25118919 L25.7957363,1.50140541 L24.6148132,0.316702703 Z M21.383978,4.74216216 L21.383978,10.240473 L4.49778022,18.9108378 L4.49778022,4.74216216 L21.383978,4.74216216 Z M21.383978,19.9321622 L4.49778022,28.602527 L4.49778022,20.7934595 L21.383978,12.1230946 L21.383978,19.9321622 Z M7.1272967,29.1345541 L21.383978,21.8143649 L21.383978,29.1345541 L7.1272967,29.1345541 Z M6.916,7.31348649 L12.9412967,7.31348649 L12.9412967,8.98916216 L6.916,8.98916216 L6.916,7.31348649 Z M37.1493846,20.6702973 C37.4492088,21.860027 37.6012088,23.0853649 37.6012088,24.3132162 L37.6012088,28.3717027 C37.6012088,29.7164324 36.5104835,30.8106486 35.170044,30.8106486 L28.9722857,30.8106486 C27.6318462,30.8106486 26.5411209,29.7164324 26.5411209,28.3717027 L26.5411209,24.3132162 C26.5411209,23.0866216 26.6931209,21.8608649 26.9929451,20.6707162 L28.7325934,13.7665135 C28.9534945,12.8897162 29.0654066,11.9869459 29.0654066,11.0829189 L29.0654066,9.06540541 L29.9005714,8.22756757 L34.2417582,8.22756757 L35.0769231,9.06540541 L35.0769231,11.0829189 C35.0769231,11.9869459 35.1888352,12.8901351 35.4097363,13.7665135 L37.1493846,20.6702973 Z M35.9308791,28.3712838 L35.9312967,28.3712838 L35.9312967,24.3127973 C35.9312967,23.2236081 35.7964176,22.1365135 35.5304176,21.0808378 L33.7907692,14.1770541 C33.536044,13.1662027 33.407011,12.1251892 33.407011,11.0825 L33.407011,9.90282432 L30.7357363,9.90282432 L30.7357363,11.0825 C30.7357363,12.1247703 30.6067033,13.1657838 30.351978,14.1770541 L28.6123297,21.0808378 C28.3463297,22.1369324 28.2114505,23.2244459 28.2114505,24.3127973 L28.2114505,28.3712838 C28.2114505,28.7922973 28.5526154,29.1345541 28.9722857,29.1345541 L35.170044,29.1345541 C35.5897143,29.1345541 35.9308791,28.7922973 35.9308791,28.3712838 Z M29.8366813,5.74212162 L34.3060659,5.74212162 L34.3060659,7.4177973 L29.8366813,7.4177973 L29.8366813,5.74212162 Z"></path>
                        </g>
                    </g>
                </g>
            </g>
        </g>
    </g>
</svg>