<?xml version="1.0" encoding="UTF-8" standalone="no"?>
<svg width="9px" height="19px" viewBox="0 0 9 19" version="1.1" xmlns="http://www.w3.org/2000/svg" xmlns:xlink="http://www.w3.org/1999/xlink">
    <!-- Generator: Sketch 42 (36781) - http://www.bohemiancoding.com/sketch -->
    <title>$</title>
    <desc>Created with Sketch.</desc>
    <defs></defs>
    <g id="Page-1" stroke="none" stroke-width="1" fill="none" fill-rule="evenodd">
        <g id="Desktop" transform="translate(-639.000000, -893.000000)" fill="#4A4A4A">
            <g id="Group-2" transform="translate(639.000000, 893.000000)">
                <path d="M4.187,16.209 C4.11099962,16.2216667 4.04766692,16.228 3.997,16.228 L3.826,16.228 C3.07866293,16.228 2.45800247,16.1741672 1.964,16.0665 C1.46999753,15.9588328 1.00766882,15.835334 0.577,15.696 C0.60233346,15.5059991 0.64666635,15.3001678 0.71,15.0785 C0.77333365,14.8568322 0.84299962,14.6573342 0.919,14.48 C1.09633422,14.5306669 1.27999905,14.5876664 1.47,14.651 C1.66000095,14.7143337 1.87216549,14.7713331 2.1065,14.822 C2.3408345,14.8726669 2.60366521,14.9169998 2.895,14.955 C3.18633479,14.9930002 3.5219981,15.012 3.902,15.012 C5.10533935,15.012 5.98883052,14.7555026 6.5525,14.2425 C7.11616948,13.7294974 7.398,13.0803373 7.398,12.295 C7.398,11.9149981 7.35050048,11.5920013 7.2555,11.326 C7.16049952,11.0599987 6.9958345,10.8161678 6.7615,10.5945 C6.52716549,10.3728322 6.20416872,10.1606677 5.7925,9.958 C5.38083127,9.75533232 4.86466977,9.53366787 4.244,9.293 C3.80066445,9.12833251 3.37950199,8.95416759 2.9805,8.7705 C2.581498,8.58683242 2.23000152,8.36200133 1.926,8.096 C1.62199848,7.82999867 1.38133422,7.51016854 1.204,7.1365 C1.02666578,6.76283147 0.938,6.29100285 0.938,5.721 C0.938,4.8343289 1.21349724,4.10283622 1.7645,3.5265 C2.31550275,2.95016379 3.12299468,2.57966749 4.187,2.415 L4.187,0.705 C4.35166749,0.66699981 4.52899905,0.648 4.719,0.648 C4.89633422,0.648 5.07999905,0.66699981 5.27,0.705 L5.27,2.339 C5.54866806,2.339 5.83049857,2.35166654 6.1155,2.377 C6.40050142,2.40233346 6.6696654,2.43399981 6.923,2.472 C7.1763346,2.51000019 7.40749895,2.55433308 7.6165,2.605 C7.82550104,2.65566692 7.9933327,2.69999981 8.12,2.738 C8.09466654,2.92800095 8.05983355,3.12116569 8.0155,3.3175 C7.97116644,3.51383432 7.91733365,3.70066578 7.854,3.878 C7.54999848,3.77666616 7.16050237,3.68483375 6.6855,3.6025 C6.21049762,3.52016626 5.73866901,3.479 5.27,3.479 C4.21866141,3.479 3.46500228,3.68483128 3.009,4.0965 C2.55299772,4.50816873 2.325,5.04333004 2.325,5.702 C2.325,6.04400171 2.39466597,6.33849877 2.534,6.5855 C2.67333403,6.83250124 2.86649876,7.04783242 3.1135,7.2315 C3.36050123,7.41516759 3.65499829,7.58299924 3.997,7.735 C4.33900171,7.88700076 4.70633137,8.03899924 5.099,8.191 C5.63100266,8.40633441 6.12816436,8.62483223 6.5905,8.8465 C7.05283564,9.06816778 7.44866502,9.32783185 7.778,9.6255 C8.10733498,9.92316816 8.36699905,10.2746646 8.557,10.68 C8.74700095,11.0853354 8.842,11.5793304 8.842,12.162 C8.842,13.2640055 8.5253365,14.1474967 7.892,14.8125 C7.2586635,15.4775033 6.38467224,15.9049991 5.27,16.095 L5.27,18.242 C5.09266578,18.2800002 4.92166749,18.299 4.757,18.299 C4.56699905,18.299 4.37700095,18.2800002 4.187,18.242 L4.187,16.209 Z" id="$"></path>
            </g>
        </g>
    </g>
</svg>