<svg xmlns="http://www.w3.org/2000/svg" viewBox="0 0 138.68 117.47"><defs><style>.cls-1{fill:#144733;}</style></defs><title>logo</title><g id="Layer_2" data-name="Layer 2"><g id="Layer_1-2" data-name="Layer 1"><path class="cls-1" d="M45,5.58a1.63,1.63,0,0,1,1.19.5,1.5,1.5,0,0,1,.5,1.07A1.86,1.86,0,0,1,46,8.4q-.75.69-1.94,1.88t-2.76,3.07a30.48,30.48,0,0,0-3.13,4.7q-1.76,3.07-2.82,5.45a33.8,33.8,0,0,0-1.63,4.32l1.16-.63,1.22-.63a46.94,46.94,0,0,1,6.52-2.66q3.38-1.1,6.52-1.85-1.5-1.88-5.39-1.88a8.51,8.51,0,0,0-1.66.16,7.23,7.23,0,0,1-1.41.16,1.4,1.4,0,0,1-.78-.19.85.85,0,0,1-.28-.75,1.42,1.42,0,0,1,.88-1.44,22.81,22.81,0,0,1,2.7-.88,17.35,17.35,0,0,0,3.79-1.5,19.37,19.37,0,0,0,3.79-2.6,14.7,14.7,0,0,0,2.91-3.45,7.78,7.78,0,0,0,1.16-4.11,2.79,2.79,0,0,0-.44-1.63,3.2,3.2,0,0,0-1.16-1,5,5,0,0,0-1.69-.5,16,16,0,0,0-2-.13,22.78,22.78,0,0,0-6,.88,43.46,43.46,0,0,0-6.33,2.29,48.27,48.27,0,0,0-6,3.26A40.14,40.14,0,0,0,26,12.54a21.08,21.08,0,0,0-3.51,3.89,6.45,6.45,0,0,0-1.32,3.51,1.44,1.44,0,0,0,.25.81,1.55,1.55,0,0,1,.25.88,1.45,1.45,0,0,1-.56,1.16,1.91,1.91,0,0,1-1.25.47q-1.63,0-1.63-2a10,10,0,0,1,1.38-4.83,20.91,20.91,0,0,1,3.79-4.86A37.55,37.55,0,0,1,29,7.11a46.53,46.53,0,0,1,6.83-3.7A43.25,43.25,0,0,1,43.29.91,32.89,32.89,0,0,1,50.84,0a10.82,10.82,0,0,1,3.45.47,6.41,6.41,0,0,1,2.19,1.19,4.09,4.09,0,0,1,1.16,1.66A5.45,5.45,0,0,1,58,5.2a8.57,8.57,0,0,1-.75,3.38,16.38,16.38,0,0,1-2.07,3.48A21.18,21.18,0,0,1,52,15.36a23.75,23.75,0,0,1-4,2.76,2,2,0,0,0,.56.31,6.38,6.38,0,0,1,1,.6,10.07,10.07,0,0,1,1.22,1A9.13,9.13,0,0,1,52,21.44q2.88-.5,5-.78a27.41,27.41,0,0,1,3.17-.28,3.65,3.65,0,0,1,1.5.28,1,1,0,0,1,.63.91q0,1.25-2.38,1.25-.82,0-2.66.16t-4.36.6a10.32,10.32,0,0,1,.31,2.51A13.25,13.25,0,0,1,52,31.46a24.74,24.74,0,0,1-3.32,5.39,34.21,34.21,0,0,1-4.89,5,41,41,0,0,1-5.86,4.07,31.89,31.89,0,0,1-6.27,2.76,20.52,20.52,0,0,1-6.14,1,8.87,8.87,0,0,1-3.1-.5,6.69,6.69,0,0,1-2.26-1.35,5.81,5.81,0,0,1-1.38-1.91,5.38,5.38,0,0,1-.47-2.19A8.15,8.15,0,0,1,19.25,40a16.6,16.6,0,0,1,2.57-3.64,27.87,27.87,0,0,1,3.89-3.48q2.26-1.69,4.83-3.26a45.85,45.85,0,0,1,1.75-5.33,59.46,59.46,0,0,1,3.2-6.77q1.88-3.38,3.45-5.67a38.08,38.08,0,0,1,2.79-3.67,13.15,13.15,0,0,1,2.07-2A2.68,2.68,0,0,1,45,5.58ZM50.34,26.2a7.19,7.19,0,0,0-.25-2.07q-3.2.69-6.71,1.79a38.44,38.44,0,0,0-6.77,2.85l-1.88,1q-.94.53-1.88,1A17.67,17.67,0,0,0,32.64,33c0,.65,0,1.26,0,1.85a5.12,5.12,0,0,1-.09.94q-.09.5-.72.5a2.54,2.54,0,0,1-1.38-.5,1.57,1.57,0,0,1-.75-1.38c0-.13,0-.32,0-.6s.05-.64.09-1.1a35.53,35.53,0,0,0-6.61,5.48,8,8,0,0,0-2.48,5.23,3,3,0,0,0,1.57,2.88,7.06,7.06,0,0,0,3.51.88,15.94,15.94,0,0,0,5.33-1,30,30,0,0,0,5.55-2.66,37.86,37.86,0,0,0,5.2-3.82,36.55,36.55,0,0,0,4.36-4.48,23.8,23.8,0,0,0,3-4.67A10.14,10.14,0,0,0,50.34,26.2Z"/><path class="cls-1" d="M60.69,32.28a9.6,9.6,0,0,0,3.92-.81,16,16,0,0,0,3.42-2,19.76,19.76,0,0,0,2.79-2.63q1.22-1.41,2.1-2.54.56-.69,1-1.13a1.32,1.32,0,0,1,.94-.44.78.78,0,0,1,.88.88,1.43,1.43,0,0,1-.22.78q-.22.35-.72,1-1.13,1.32-2.66,2.91a26.23,26.23,0,0,1-3.42,3,19.9,19.9,0,0,1-4.14,2.32,12.58,12.58,0,0,1-4.89.94,3,3,0,0,1-1.41-.34,4.5,4.5,0,0,1-1.19-.91A4.44,4.44,0,0,1,56.24,32a3.67,3.67,0,0,1-.31-1.47,2,2,0,0,0-.09-.72,2,2,0,0,1-.09-.72,1.51,1.51,0,0,1,.31-.88,1.8,1.8,0,0,1,.75-.63A15.82,15.82,0,0,1,59,23.75a15,15,0,0,1,2.57-2.57,9.69,9.69,0,0,1,2.66-1.47,7.72,7.72,0,0,1,2.54-.47,2.79,2.79,0,0,1,1.72.66,1.91,1.91,0,0,1,.85,1.54,4.05,4.05,0,0,1-.91,2.41,11.87,11.87,0,0,1-2.29,2.29,17.64,17.64,0,0,1-3,1.88A13.74,13.74,0,0,1,60,29.15q-.88.19-1,.47a1.62,1.62,0,0,0-.16.78,2.58,2.58,0,0,0,.38,1.19A1.55,1.55,0,0,0,60.69,32.28ZM66,21.69a3.05,3.05,0,0,0-1.69.66,17.38,17.38,0,0,0-1.88,1.54,17.15,17.15,0,0,0-1.69,1.82q-.75.94-1.13,1.5a4.89,4.89,0,0,0,2-.6A17.63,17.63,0,0,0,64,25.23,14.16,14.16,0,0,0,66,23.63a2.23,2.23,0,0,0,.81-1.32Q66.77,21.69,66,21.69Z"/><path class="cls-1" d="M85.42,17.86a11.88,11.88,0,0,1-1.57.44q-.88.19-1.75.34a16.75,16.75,0,0,1-1.72.22q-.85.06-1.47.06a2.64,2.64,0,0,1-.44,0l-.31,0q-.94,1.94-1.88,4t-1.69,4a38.54,38.54,0,0,0-1.22,3.73,11.78,11.78,0,0,0-.47,2.95,1.87,1.87,0,0,0,.19.94,1.37,1.37,0,0,1-.13,1.57,1.15,1.15,0,0,1-1,.44q-1.57,0-1.57-2.51a21.7,21.7,0,0,1,1.47-6.93,76.31,76.31,0,0,1,3.73-8.68,3.85,3.85,0,0,1-.85-.13,3.92,3.92,0,0,1-1-.41,4,4,0,0,1-.88-.66,1.2,1.2,0,0,1-.38-.88,1.55,1.55,0,0,1,1.63-1.57,1.44,1.44,0,0,1,.75.19l.63.41q.31.22.63.41a1.31,1.31,0,0,0,.69.19q.56-1.13,1.28-2.29t1.47-2.29q.75-1.13,1.5-2.16T82.41,7.4a15.15,15.15,0,0,1,1.41-1.63A1.66,1.66,0,0,1,85,5.26q1.32,0,1.32,1.13a2.42,2.42,0,0,1-.22,1A3.8,3.8,0,0,1,85,8.59a14.05,14.05,0,0,0-1.13,1.13,23.47,23.47,0,0,0-1.57,1.91q-.82,1.1-1.63,2.35a21,21,0,0,0-1.38,2.44,1.29,1.29,0,0,0,.5.06,12.14,12.14,0,0,0,1.57-.13q.94-.12,2-.31a20.18,20.18,0,0,0,2-.47A16.31,16.31,0,0,0,87,15q1.38-2.44,2.76-4.73t2.51-3.79a14,14,0,0,1,1.41-1.63,1.73,1.73,0,0,1,1.16-.56q1.38,0,1.38,1.19a2.17,2.17,0,0,1-.25,1,4.31,4.31,0,0,1-1.13,1.16,10.54,10.54,0,0,0-1.79,2.13q-1,1.44-2.6,4.14a18.31,18.31,0,0,1,2-.5,10.69,10.69,0,0,1,2-.19q3.32,0,3.32,2a2.54,2.54,0,0,1-.66,1.66,1.78,1.78,0,0,1-1.28.78q-.69,0-.69-.56a1.62,1.62,0,0,1,.06-.5,1.41,1.41,0,0,0,.06-.44c0-.25-.18-.42-.53-.5a5.39,5.39,0,0,0-1.22-.13,6.39,6.39,0,0,0-2.29.47l-2.54,1q-1.25,2.26-2.54,5t-2.32,5.42q-1,2.7-1.69,5.08a15.55,15.55,0,0,0-.66,4,2.22,2.22,0,0,0,.13.81,3.22,3.22,0,0,0,.31.6,3.85,3.85,0,0,1,.31.56,1.79,1.79,0,0,1,.13.72,1.24,1.24,0,0,1-.34.78,1.28,1.28,0,0,1-1,.41,1.8,1.8,0,0,1-1.35-.81A4.2,4.2,0,0,1,79,36.92a18.7,18.7,0,0,1,.56-4.26,42.14,42.14,0,0,1,1.5-4.92q.94-2.54,2.07-5.08T85.42,17.86Z"/><path class="cls-1" d="M91.66,32.28a9.6,9.6,0,0,0,3.92-.81,16,16,0,0,0,3.42-2,19.76,19.76,0,0,0,2.79-2.63q1.22-1.41,2.1-2.54.56-.69,1-1.13a1.32,1.32,0,0,1,.94-.44.78.78,0,0,1,.88.88,1.43,1.43,0,0,1-.22.78q-.22.35-.72,1-1.13,1.32-2.66,2.91a26.23,26.23,0,0,1-3.42,3,19.9,19.9,0,0,1-4.14,2.32,12.58,12.58,0,0,1-4.89.94,3,3,0,0,1-1.41-.34,4.5,4.5,0,0,1-1.19-.91A4.44,4.44,0,0,1,87.21,32a3.67,3.67,0,0,1-.31-1.47,2,2,0,0,0-.09-.72,2,2,0,0,1-.09-.72,1.51,1.51,0,0,1,.31-.88,1.8,1.8,0,0,1,.75-.63A15.82,15.82,0,0,1,90,23.75a15,15,0,0,1,2.57-2.57,9.69,9.69,0,0,1,2.66-1.47,7.72,7.72,0,0,1,2.54-.47,2.79,2.79,0,0,1,1.72.66,1.91,1.91,0,0,1,.85,1.54,4.05,4.05,0,0,1-.91,2.41,11.87,11.87,0,0,1-2.29,2.29,17.64,17.64,0,0,1-3,1.88A13.74,13.74,0,0,1,91,29.15q-.88.19-1,.47a1.62,1.62,0,0,0-.16.78,2.58,2.58,0,0,0,.38,1.19A1.55,1.55,0,0,0,91.66,32.28ZM97,21.69a3.05,3.05,0,0,0-1.69.66,17.38,17.38,0,0,0-1.88,1.54,17.15,17.15,0,0,0-1.69,1.82q-.75.94-1.13,1.5a4.89,4.89,0,0,0,2-.6A17.63,17.63,0,0,0,95,25.23a14.16,14.16,0,0,0,1.94-1.6,2.23,2.23,0,0,0,.81-1.32Q97.74,21.69,97,21.69Z"/><path class="cls-1" d="M107.59,19a1.29,1.29,0,0,1,.85.28.83.83,0,0,1,.34.66,4.06,4.06,0,0,1-.44,1.54,4,4,0,0,0-.44,1.41c0,.13,0,.19.13.19s.42-.17.75-.5a24.86,24.86,0,0,1,3.13-2.82,4.46,4.46,0,0,1,2.57-1,2.41,2.41,0,0,1,1.57.56,2,2,0,0,1,.69,1.63,6.49,6.49,0,0,1-.5,2.6,1.73,1.73,0,0,1-1.69,1.16,1.18,1.18,0,0,1-.81-.34,1.1,1.1,0,0,1-.38-.85,2.27,2.27,0,0,1,.22-1,1.9,1.9,0,0,0,.22-.72c0-.29-.19-.44-.56-.44a2.78,2.78,0,0,0-1.19.69,21.89,21.89,0,0,0-1.91,1.72q-1,1-2.1,2.29a21.68,21.68,0,0,0-1.82,2.44,16.25,16.25,0,0,0-1,1.88q-.47,1-.88,1.91t-.72,1.5c-.21.4-.38.6-.5.6A1.64,1.64,0,0,1,101.64,33a3.94,3.94,0,0,1,.16-.85q.16-.59.44-1.38t.63-1.69q.34-.91.72-1.79.75-1.82,1.38-3.45t.88-2.57a6.07,6.07,0,0,1,.69-1.69A1.21,1.21,0,0,1,107.59,19Z"/><path class="cls-1" d="M8.14,69.73l1.17,6,11.29-2.2,1.13,5.81-11.29,2.2L12.66,92.9l-7,1.36L0,65.07l19.21-3.75,1.17,6Z"/><path class="cls-1" d="M61.44,72.09a16.59,16.59,0,0,1-.73,6.52,14.68,14.68,0,0,1-3,5.24,15,15,0,0,1-4.89,3.59,18.95,18.95,0,0,1-12.88,1,15.08,15.08,0,0,1-5.35-2.82,14.66,14.66,0,0,1-3.75-4.73,16.57,16.57,0,0,1-1.7-6.34A16.38,16.38,0,0,1,29.88,68a14.11,14.11,0,0,1,3-5.13,15.06,15.06,0,0,1,4.87-3.48,18.49,18.49,0,0,1,6.35-1.57,18.68,18.68,0,0,1,6.53.6A15,15,0,0,1,56,61.13a14.13,14.13,0,0,1,3.74,4.62A16.39,16.39,0,0,1,61.44,72.09Zm-7.66.58a10.21,10.21,0,0,0-.9-3.55,8.62,8.62,0,0,0-2-2.74A8,8,0,0,0,48.1,64.7a8.51,8.51,0,0,0-3.51-.43,8.26,8.26,0,0,0-5.92,3,8.17,8.17,0,0,0-1.52,3,11.15,11.15,0,0,0,.57,7.31,8.8,8.8,0,0,0,2,2.78,7.94,7.94,0,0,0,2.8,1.7,8.9,8.9,0,0,0,6.87-.52,8.18,8.18,0,0,0,2.54-2.11,8.62,8.62,0,0,0,1.54-3A10.62,10.62,0,0,0,53.78,72.67Z"/><path class="cls-1" d="M101.7,73.8a16.58,16.58,0,0,1-1.57,6.37A14.68,14.68,0,0,1,96.48,85a15,15,0,0,1-5.31,2.92,18.95,18.95,0,0,1-12.89-.71,15.08,15.08,0,0,1-4.94-3.49,14.67,14.67,0,0,1-3.1-5.18,16.57,16.57,0,0,1-.86-6.5,16.38,16.38,0,0,1,1.57-6.37,14.11,14.11,0,0,1,3.65-4.7,15.07,15.07,0,0,1,5.29-2.82,19.63,19.63,0,0,1,12.89.71,15,15,0,0,1,5,3.39,14.13,14.13,0,0,1,3.11,5.07A16.39,16.39,0,0,1,101.7,73.8ZM94,73.38a10.21,10.21,0,0,0-.43-3.64,8.61,8.61,0,0,0-1.58-3,8,8,0,0,0-2.58-2A8.5,8.5,0,0,0,86,63.85a8.26,8.26,0,0,0-6.26,2.24,8.17,8.17,0,0,0-1.9,2.78A10.52,10.52,0,0,0,77,72.44a10.63,10.63,0,0,0,.42,3.75,8.8,8.8,0,0,0,1.58,3,8,8,0,0,0,2.56,2.05,8.9,8.9,0,0,0,6.88.38,8.19,8.19,0,0,0,2.79-1.76,8.61,8.61,0,0,0,1.92-2.82A10.62,10.62,0,0,0,94,73.38Z"/><path class="cls-1" d="M138.32,80.33a14.64,14.64,0,0,1-2.68,6.35A13.6,13.6,0,0,1,131,90.55a15.93,15.93,0,0,1-5.76,1.64,21.7,21.7,0,0,1-6.1-.28l-10.89-2.07,5.56-29.21,10.56,2a26.59,26.59,0,0,1,6,1.88,15.61,15.61,0,0,1,4.91,3.41,12.47,12.47,0,0,1,2.94,5.2A15.3,15.3,0,0,1,138.32,80.33ZM131,78.94a9.42,9.42,0,0,0,0-4.26,7,7,0,0,0-1.65-3,8.75,8.75,0,0,0-2.79-2,15.31,15.31,0,0,0-3.45-1.08L119.56,68,116.31,85l3.34.64a15.45,15.45,0,0,0,3.73.26,8.79,8.79,0,0,0,3.36-.83,7.19,7.19,0,0,0,2.65-2.23A9.44,9.44,0,0,0,131,78.94Z"/><path class="cls-1" d="M18.8,108.94l.34,2,3.72-.63.33,1.92-3.72.63.64,3.74-2.3.39-1.64-9.62,6.33-1.08.34,2Z"/><path class="cls-1" d="M36.18,109.29a5.44,5.44,0,0,1-.13,2.15,4.82,4.82,0,0,1-.89,1.77,4.94,4.94,0,0,1-1.54,1.26,6.22,6.22,0,0,1-4.21.54,5,5,0,0,1-1.8-.83,4.81,4.81,0,0,1-1.31-1.49,5.44,5.44,0,0,1-.67-2,5.37,5.37,0,0,1,.13-2.15,4.63,4.63,0,0,1,.89-1.74,5,5,0,0,1,1.54-1.23A6.45,6.45,0,0,1,32.4,105a4.94,4.94,0,0,1,1.81.8,4.64,4.64,0,0,1,1.31,1.45A5.38,5.38,0,0,1,36.18,109.29Zm-2.5.32a3.35,3.35,0,0,0-.36-1.15,2.83,2.83,0,0,0-.69-.86,2.64,2.64,0,0,0-1-.5,2.79,2.79,0,0,0-1.16-.08,2.71,2.71,0,0,0-1.89,1.1,2.68,2.68,0,0,0-.45,1,3.66,3.66,0,0,0,.32,2.39,2.9,2.9,0,0,0,.69.88,2.61,2.61,0,0,0,.95.51,2.92,2.92,0,0,0,2.24-.29,2.68,2.68,0,0,0,.79-.74,2.83,2.83,0,0,0,.45-1A3.49,3.49,0,0,0,33.68,109.61Z"/><path class="cls-1" d="M47.39,111.15a3.49,3.49,0,0,1-.74,1.31,3.91,3.91,0,0,1-1.26.92,5.34,5.34,0,0,1-3.46.29,3.77,3.77,0,0,1-1.37-.69,3.5,3.5,0,0,1-.93-1.17,4.29,4.29,0,0,1-.42-1.58l-.52-6.06L41,104l.5,5.87a2.72,2.72,0,0,0,.17.75,1.94,1.94,0,0,0,.37.61,1.49,1.49,0,0,0,.6.4,2.25,2.25,0,0,0,1.69-.14,1.55,1.55,0,0,0,.53-.5,1.79,1.79,0,0,0,.26-.67,2.92,2.92,0,0,0,0-.76l-.5-5.87,2.35-.2.52,6.06A4.2,4.2,0,0,1,47.39,111.15Z"/><path class="cls-1" d="M57.3,112.71,53.1,106.5h0l.34,6.38-2.29.1-.43-9.75,2.69-.12,4.19,6.19h0l-.33-6.36,2.29-.1.43,9.75Z"/><path class="cls-1" d="M72.39,107.55a4.81,4.81,0,0,1-.46,2.22,4.47,4.47,0,0,1-1.24,1.54,5.23,5.23,0,0,1-1.75.9,7.13,7.13,0,0,1-2,.3l-3.64,0-.09-9.76,3.53,0a8.73,8.73,0,0,1,2,.22,5.12,5.12,0,0,1,1.8.78,4.09,4.09,0,0,1,1.28,1.48A5,5,0,0,1,72.39,107.55Zm-2.45,0a3.09,3.09,0,0,0-.28-1.37,2.31,2.31,0,0,0-.73-.86,2.88,2.88,0,0,0-1-.45,5,5,0,0,0-1.18-.13H65.55l.05,5.71h1.12a5.06,5.06,0,0,0,1.22-.16,2.88,2.88,0,0,0,1-.49,2.36,2.36,0,0,0,.71-.89A3.1,3.1,0,0,0,69.94,107.57Z"/><path class="cls-1" d="M81.47,112.78l-.69-1.94L77,110.7l-.78,1.89-2.56-.09,4.44-9.61,2.29.08,3.71,9.9Zm-2.37-7.24-1.36,3.31,2.45.09Z"/><path class="cls-1" d="M90.06,105.52l-.53,7.73-2.35-.16.53-7.73L85,105.18l.14-2,7.86.53-.14,2Z"/><path class="cls-1" d="M94.64,113.67l.92-9.72,2.36.22L97,113.89Z"/><path class="cls-1" d="M111,110.61a5.45,5.45,0,0,1-.67,2,4.82,4.82,0,0,1-1.31,1.49,4.94,4.94,0,0,1-1.81.83,6.22,6.22,0,0,1-4.21-.54,5,5,0,0,1-1.53-1.26,4.82,4.82,0,0,1-.89-1.77,5.45,5.45,0,0,1-.13-2.15,5.38,5.38,0,0,1,.67-2,4.63,4.63,0,0,1,1.3-1.45,5,5,0,0,1,1.8-.8,6.45,6.45,0,0,1,4.21.54,4.94,4.94,0,0,1,1.55,1.23,4.64,4.64,0,0,1,.9,1.73A5.39,5.39,0,0,1,111,110.61Zm-2.5-.32a3.35,3.35,0,0,0-.05-1.2,2.83,2.83,0,0,0-.45-1,2.64,2.64,0,0,0-.8-.73,2.79,2.79,0,0,0-1.1-.37,2.72,2.72,0,0,0-2.1.59,2.68,2.68,0,0,0-.69.86,3.45,3.45,0,0,0-.35,1.15,3.5,3.5,0,0,0,.05,1.24,2.89,2.89,0,0,0,.45,1,2.61,2.61,0,0,0,.79.73,2.92,2.92,0,0,0,2.24.29,2.69,2.69,0,0,0,1-.51,2.83,2.83,0,0,0,.7-.88A3.49,3.49,0,0,0,108.52,110.29Z"/><path class="cls-1" d="M119.29,117l-2.77-7h0l-1.05,6.3-2.25-.4,1.69-9.62,2.65.47,2.76,7h0l1-6.28,2.25.4-1.69,9.62Z"/></g></g></svg>